<?xml version="1.0" encoding="utf-8"?>
<!-- Generator: Adobe Illustrator 26.1.0, SVG Export Plug-In . SVG Version: 6.00 Build 0)  -->
<svg version="1.1" id="Layer_1" xmlns="http://www.w3.org/2000/svg" xmlns:xlink="http://www.w3.org/1999/xlink" x="0px" y="0px"
	 viewBox="0 0 950 123" style="enable-background:new 0 0 950 123;" xml:space="preserve">
<style type="text/css">
	.st0{opacity:0.46;fill:none;stroke:#A96DC8;stroke-width:2.402;stroke-miterlimit:8.0068;}
	.st1{opacity:0.46;fill:#A96DC8;stroke:#A96DC8;stroke-width:0.8007;stroke-miterlimit:8.0068;}
	.st2{opacity:0.46;fill:none;stroke:#A96DC8;stroke-width:1.201;stroke-miterlimit:8.0068;}
	.st3{opacity:0.46;fill:none;stroke:#A96DC8;stroke-width:1.6014;stroke-miterlimit:8.0068;}
</style>
<path class="st0" d="M483.7,92c0,0-1.4-7.5,7.2-8C490.9,84.1,491.8,91.6,483.7,92z"/>
<path class="st1" d="M442,83.2c0,0.3,0.3,0.6,0.6,0.6l0,0c0.3,0,0.6-0.3,0.6-0.6v-27c0-0.3-0.3-0.6-0.6-0.6c0,0,0,0,0,0l0,0
	c-0.3,0-0.6,0.3-0.6,0.6V83.2z"/>
<path class="st1" d="M455.4,70.2c0.3,0,0.6-0.3,0.6-0.6l0,0c0-0.3-0.3-0.6-0.6-0.6h-25.5c-0.3,0-0.6,0.3-0.6,0.6l0,0
	c0,0.3,0.3,0.6,0.6,0.6H455.4z"/>
<path class="st1" d="M433.4,78.7c-0.2,0.2-0.2,0.6,0,0.8l0,0c0.2,0.2,0.6,0.2,0.8,0l17.6-18.9c0.2-0.2,0.2-0.6,0-0.8l0,0
	c-0.2-0.2-0.6-0.2-0.8,0L433.4,78.7z"/>
<path class="st1" d="M451.8,78.7c0.2,0.2,0.2,0.6,0,0.8l0,0c-0.2,0.2-0.6,0.2-0.8,0l-17.6-18.9c-0.2-0.2-0.2-0.6,0-0.8l0,0
	c0.2-0.2,0.6-0.2,0.8,0L451.8,78.7z"/>
<circle class="st0" cx="442.6" cy="53.7" r="2.2"/>
<circle class="st0" cx="442.6" cy="85.6" r="2.2"/>
<circle class="st0" cx="458.1" cy="69.6" r="2.2"/>
<circle class="st0" cx="427.5" cy="69.6" r="2.2"/>
<circle class="st0" cx="431.9" cy="80.8" r="2.2"/>
<circle class="st0" cx="453.1" cy="80.8" r="2.2"/>
<circle class="st0" cx="453.1" cy="58.1" r="2.2"/>
<circle class="st0" cx="431.9" cy="58.1" r="2.2"/>
<path class="st1" d="M607.3,121.3c0,0.4,0.3,0.6,0.6,0.6l0,0c0.3,0,0.6-0.3,0.6-0.6V48.9c0-0.4-0.3-0.6-0.6-0.6l0,0
	c-0.4,0-0.6,0.3-0.6,0.6V121.3z"/>
<path class="st1" d="M621.9,64.2c0.4,0,0.6-0.3,0.6-0.6l0,0c0-0.4-0.3-0.6-0.6-0.6H594c-0.3,0-0.6,0.3-0.6,0.6c0,0,0,0,0,0l0,0
	c0,0.3,0.3,0.6,0.6,0.6H621.9z"/>
<path class="st1" d="M597.9,73.5c-0.2,0.2-0.2,0.6,0,0.9c0,0,0,0,0,0l0,0c0.3,0.2,0.6,0.2,0.9,0c0,0,0,0,0,0L618,53.6
	c0.2-0.3,0.2-0.7,0-0.9c0,0,0,0,0,0l0,0c-0.3-0.2-0.6-0.2-0.9,0c0,0,0,0,0,0L597.9,73.5z"/>
<path class="st1" d="M618.1,73.5c0.2,0.3,0.2,0.7,0,0.9c0,0,0,0,0,0l0,0c-0.3,0.2-0.6,0.2-0.9,0c0,0,0,0,0,0l-19.2-20.7
	c-0.2-0.2-0.2-0.6,0-0.9c0,0,0,0,0,0l0,0c0.3-0.2,0.6-0.2,0.9,0c0,0,0,0,0,0L618.1,73.5z"/>
<circle class="st0" cx="608" cy="46.1" r="2.4"/>
<circle class="st0" cx="624.9" cy="63.5" r="2.4"/>
<circle class="st0" cx="591.5" cy="63.5" r="2.4"/>
<circle class="st0" cx="596.2" cy="75.8" r="2.4"/>
<circle class="st0" cx="619.5" cy="75.8" r="2.4"/>
<circle class="st0" cx="619.5" cy="50.9" r="2.4"/>
<circle class="st0" cx="596.2" cy="50.9" r="2.4"/>
<path class="st1" d="M537,120.5c0,0.6,0.5,1.1,1.1,1.1l0,0c0.6,0,1.1-0.5,1.1-1.1V39.7c0-0.6-0.5-1.1-1.1-1.1l0,0
	c-0.6,0-1.1,0.5-1.1,1.1V120.5z"/>
<path class="st1" d="M552.7,66.8c0.6,0,1.1-0.5,1.1-1.1l0,0c0-0.6-0.5-1.1-1.1-1.1h-29.2c-0.6,0-1.1,0.5-1.1,1.1l0,0
	c0,0.6,0.5,1.1,1.1,1.1H552.7z"/>
<path class="st1" d="M552.7,81.8c0.6,0,1.1-0.5,1.1-1.1l0,0c0-0.6-0.5-1.1-1.1-1.1c0,0,0,0,0,0h-29.2c-0.6,0-1.1,0.5-1.1,1.1
	c0,0,0,0,0,0l0,0c0,0.6,0.5,1.1,1.1,1.1H552.7z"/>
<path class="st1" d="M552.7,96c0.6,0,1.1-0.5,1.1-1.1l0,0c0-0.6-0.5-1.1-1.1-1.1h-29.2c-0.6,0-1.1,0.5-1.1,1.1l0,0
	c0,0.6,0.5,1.1,1.1,1.1H552.7z"/>
<circle class="st0" cx="518.8" cy="66" r="3.7"/>
<circle class="st0" cx="518.8" cy="80.1" r="3.7"/>
<circle class="st0" cx="518.8" cy="95" r="3.7"/>
<circle class="st0" cx="556.6" cy="66" r="3.7"/>
<circle class="st0" cx="556.6" cy="80.1" r="3.7"/>
<circle class="st0" cx="556.6" cy="95" r="3.7"/>
<path class="st0" d="M537.7,34.1c0,0-3.2-17.8,17.1-18.8C554.7,15.3,556.8,33.2,537.7,34.1z"/>
<path class="st0" d="M537.6,34.1c0,0-17.2,2.8-18.6-18C519,16.1,536.2,14.5,537.6,34.1z"/>
<path class="st0" d="M537.3,34.2c0,0,3,17.7-16,18.7C521.3,52.9,519.3,35.1,537.3,34.2z"/>
<path class="st0" d="M537.5,34.5c0,0,18.2-2.9,19.6,17.8C557.1,52.3,538.9,54.1,537.5,34.5z"/>
<path class="st0" d="M655.1,39.5c0,0-1.8-10.1,9.7-10.7C664.8,28.8,666,38.9,655.1,39.5z"/>
<path class="st0" d="M654.4,40.7c0,0-12.6,2-13.7-13.2C640.7,27.5,653.4,26.3,654.4,40.7z"/>
<path class="st0" d="M171,100.5c0,0-1.8-10.1,9.7-10.7C180.7,89.9,181.9,100,171,100.5z"/>
<path class="st0" d="M170.2,101.8c0,0-12.6,2-13.7-13.2C156.6,88.6,169.2,87.4,170.2,101.8z"/>
<path class="st1" d="M707.6,120.8c0,0.5,0.4,0.9,0.9,0.9c0,0,0,0,0,0l0,0c0.5,0,0.9-0.4,0.9-0.9V33.1c0-0.5-0.4-0.9-0.9-0.9
	c0,0,0,0,0,0l0,0c-0.5,0-0.9,0.4-0.9,0.9c0,0,0,0,0,0V120.8z"/>
<path class="st1" d="M318.6,121c0.1,0.5,0.5,0.8,0.9,0.7l0,0c0.5,0,0.9-0.3,0.9-0.7V50.6c-0.1-0.5-0.5-0.8-0.9-0.8l0,0
	c-0.5,0-0.9,0.3-0.9,0.8V121z"/>
<path class="st1" d="M377.9,120.9c0,0.5,0.4,0.8,0.9,0.8c0,0,0,0,0,0l0,0c0.5,0,0.9-0.3,0.9-0.8V46.2c0-0.5-0.5-0.8-0.9-0.8l0,0
	c-0.5,0-0.9,0.3-0.9,0.8c0,0,0,0,0,0V120.9z"/>
<path class="st1" d="M888.5,121.1c0,0.4,0.4,0.6,0.9,0.6l0,0c0.5,0,0.9-0.3,0.9-0.6V61.2c0-0.4-0.4-0.6-0.9-0.6l0,0
	c-0.5,0-0.9,0.3-0.9,0.6V121.1z"/>
<circle class="st0" cx="693.1" cy="51.9" r="3.5"/>
<circle class="st0" cx="693.1" cy="89.2" r="3.5"/>
<circle class="st0" cx="725.8" cy="70.6" r="3.5"/>
<path class="st1" d="M707.6,33.1v-9.5c0-2.9,2.3-5.2,5.2-5.2c0.1,0,0.2,0,0.3,0h9.1v4.7c0,0,0,4.1-5.2,4.1h-5.8c0,0-1.7-0.1-1.7,1.4
	v4.4H707.6z"/>
<path class="st1" d="M710.2,17.8v-4.9c0-2.1-1.7-3.8-3.8-3.8c-0.1,0-0.2,0-0.3,0h-6.7v3.5c0,0,0,3.1,3.9,3.1h4.3c0,0,1.2-0.1,1.2,1
	v1.2H710.2z"/>
<path class="st0" d="M769.9,88.5c-7.7,0-14-6.3-14-14s6.3-14,14-14c7.7,0,14,6.3,14,14c0,0,0,0,0,0
	C783.9,82.3,777.6,88.6,769.9,88.5C769.9,88.6,769.9,88.6,769.9,88.5"/>
<path class="st0" d="M769.9,82.3c-4.3,0-7.8-3.5-7.8-7.8s3.5-7.8,7.8-7.8c4.3,0,7.8,3.5,7.8,7.8c0,0,0,0,0,0
	C777.6,78.8,774.2,82.3,769.9,82.3C769.9,82.3,769.9,82.3,769.9,82.3"/>
<path class="st1" d="M803.7,38.7c0-1.2,3.1-1.2,3.1-1.2h5c4.5,0,4.5-3.6,4.5-3.6v-4h-7.8c-2.5-0.2-4.6,1.7-4.7,4.2
	c0,0.1,0,0.2,0,0.3L803.7,38.7L803.7,38.7z"/>
<path class="st1" d="M803.7,38.7c0-1.2-3.1-1.2-3.1-1.2h-5c-4.5,0-4.5-3.6-4.5-3.6v-4h7.8c2.5-0.2,4.6,1.7,4.7,4.2
	c0,0.1,0,0.2,0,0.3V38.7z"/>
<path class="st2" d="M840.4,120.4c0,0.3,0.2,0.6,0.6,0.6c0,0,0,0,0,0l0,0c0.3,0,0.6-0.3,0.6-0.6c0,0,0,0,0,0V58.3
	c0-0.3-0.3-0.6-0.6-0.6l0,0c-0.3,0-0.6,0.2-0.6,0.6c0,0,0,0,0,0V120.4z"/>
<line class="st2" x1="840.4" y1="58.3" x2="840.4" y2="120.4"/>
<line class="st2" x1="841.5" y1="120.4" x2="841.5" y2="58.3"/>
<path class="st2" d="M840.5,77.9c-0.2,0.2-0.2,0.6,0,0.8c0,0,0,0,0,0l0,0c0.2,0.2,0.6,0.2,0.8,0l10.4-11.8c0.2-0.2,0.2-0.6,0-0.8
	c0,0,0,0,0,0l0,0c-0.2-0.2-0.6-0.2-0.8,0L840.5,77.9z"/>
<path class="st2" d="M841.4,77.9c0.2,0.2,0.2,0.6,0,0.8l0,0c-0.2,0.2-0.6,0.2-0.8,0l-10.4-11.8c-0.2-0.2-0.2-0.6,0-0.8l0,0
	c0.2-0.2,0.6-0.2,0.8,0L841.4,77.9z"/>
<path class="st2" d="M840.5,88c-0.2,0.2-0.2,0.6,0,0.8l0,0c0.2,0.2,0.6,0.2,0.8,0l10.4-11.8c0.2-0.2,0.2-0.6,0-0.8c0,0,0,0,0,0l0,0
	c-0.2-0.2-0.6-0.2-0.8,0c0,0,0,0,0,0L840.5,88z"/>
<path class="st2" d="M841.4,88c0.2,0.2,0.2,0.6,0,0.8l0,0c-0.2,0.2-0.6,0.2-0.8,0l-10.4-11.8c-0.2-0.2-0.2-0.6,0-0.8l0,0
	c0.2-0.2,0.6-0.2,0.8,0L841.4,88z"/>
<path class="st2" d="M840.5,96.8c-0.2,0.2-0.2,0.6,0,0.8l0,0c0.2,0.2,0.6,0.2,0.8,0c0,0,0,0,0,0l10.4-11.8c0.2-0.2,0.2-0.6,0-0.8
	c0,0,0,0,0,0l0,0c-0.2-0.2-0.6-0.2-0.8,0c0,0,0,0,0,0L840.5,96.8z"/>
<path class="st2" d="M841.4,96.8c0.2,0.2,0.2,0.6,0,0.8l0,0c-0.2,0.2-0.6,0.2-0.8-0.1l-10.4-11.8c-0.2-0.2-0.2-0.6,0-0.8l0,0
	c0.2-0.2,0.6-0.2,0.8,0c0,0,0,0,0,0L841.4,96.8z"/>
<path class="st2" d="M840.5,106.8c-0.2,0.2-0.2,0.6,0,0.8c0,0,0,0,0,0l0,0c0.2,0.2,0.6,0.2,0.8,0c0,0,0,0,0,0l10.4-11.8
	c0.2-0.2,0.2-0.6,0-0.8c0,0,0,0,0,0l0,0c-0.2-0.2-0.6-0.2-0.8,0L840.5,106.8z"/>
<path class="st2" d="M841.4,106.8c0.2,0.2,0.2,0.6,0,0.8l0,0c-0.2,0.2-0.6,0.2-0.8,0l-10.4-11.8c-0.2-0.2-0.2-0.6,0-0.8l0,0
	c0.2-0.2,0.6-0.2,0.8,0L841.4,106.8z"/>
<path class="st0" d="M889.7,47.8c-8.3,0-15.1-6.7-15.1-15.1s6.7-15.1,15.1-15.1c8.3,0,15.1,6.7,15.1,15.1
	C904.8,41.1,898,47.8,889.7,47.8L889.7,47.8"/>
<path class="st0" d="M889.7,41.1c-4.6,0-8.3-3.7-8.3-8.3c0-4.6,3.7-8.3,8.3-8.3c4.6,0,8.3,3.7,8.3,8.3
	C898,37.3,894.3,41.1,889.7,41.1L889.7,41.1"/>
<circle class="st0" cx="889.5" cy="10.7" r="3"/>
<circle class="st0" cx="889.5" cy="54.8" r="3"/>
<circle class="st0" cx="910.8" cy="32.7" r="3"/>
<circle class="st0" cx="868.6" cy="32.7" r="3"/>
<circle class="st0" cx="874.6" cy="48.2" r="3"/>
<circle class="st0" cx="904" cy="48.2" r="3"/>
<circle class="st0" cx="904" cy="16.7" r="3"/>
<circle class="st0" cx="874.6" cy="16.7" r="3"/>
<path class="st3" d="M927.4,95.2l2.4,1.6c0,0,3.8,1.1,5.8,0c2-1.1,1.9-1.6,1.9-1.6s-1.5-3.3-7.6-1.8L927.4,95.2z"/>
<path class="st3" d="M947.6,95.2l-2.4,1.6c0,0-3.8,1.1-5.8,0c-2-1.1-1.9-1.6-1.9-1.6s1.5-3.3,7.6-1.8L947.6,95.2z"/>
<path class="st3" d="M937.5,105.3l1.6-2.4c0,0,1.1-3.8,0-5.8c-1.1-2-1.6-1.9-1.6-1.9s-3.3,1.5-1.8,7.6L937.5,105.3z"/>
<path class="st3" d="M937.5,85.1l1.6,2.4c0,0,1.1,3.8,0,5.8c-1.1,2-1.6,1.9-1.6,1.9s-3.3-1.6-1.8-7.6L937.5,85.1z"/>
<circle class="st0" cx="61.8" cy="104.2" r="2.7"/>
<circle class="st0" cx="57.2" cy="111.3" r="2.7"/>
<circle class="st0" cx="66" cy="111.3" r="2.7"/>
<path class="st1" d="M110.2,121.5c0,0.6,0.5,1.1,1.1,1.1l0,0c0.6,0,1.1-0.5,1.1-1.1V42.1c0-0.6-0.5-1.1-1.1-1.1l0,0
	c-0.6,0-1.1,0.5-1.1,1.1V121.5z"/>
<circle class="st0" cx="100.9" cy="62.6" r="3.7"/>
<circle class="st0" cx="100.9" cy="74.3" r="3.7"/>
<circle class="st0" cx="100.9" cy="86" r="3.7"/>
<circle class="st0" cx="100.9" cy="97.7" r="3.7"/>
<circle class="st0" cx="121.3" cy="74.4" r="3.7"/>
<circle class="st0" cx="121.3" cy="86.1" r="3.7"/>
<circle class="st0" cx="121.3" cy="97.8" r="3.7"/>
<circle class="st0" cx="121.3" cy="109.5" r="3.7"/>
<path class="st1" d="M134.1,31.6v5.7c0,0.8-0.4,4.8-6.7,4.8h-10.1c-1.2,0-2.5,0.1-3.7,0.3v-4.2c0-1.1,0.4-6.6,7.1-6.6H134.1
	 M136.5,29.2h-15.7c-9.5,0-9.5,9-9.5,9v8.7c0-2.3,5.2-2.4,6.1-2.4h10.1c9.1,0,9.1-7.2,9.1-7.2L136.5,29.2L136.5,29.2z"/>
<path class="st1" d="M101.7,31.6c6.7,0,7.1,5.5,7.1,6.6v4.2c-1.2-0.2-2.4-0.3-3.7-0.3H95.1c-6.2,0-6.6-4-6.7-4.8v-5.7H101.7
	 M101.7,29.2H86v8.1c0,0,0,7.2,9.1,7.2h10.1c0.9,0,6.1,0.1,6.1,2.4v-8.7C111.3,38.1,111.3,29.2,101.7,29.2L101.7,29.2z"/>
<path class="st2" d="M216.2,121.6c0,0.3,0.2,0.5,0.5,0.5l0,0c0.3,0,0.5-0.2,0.5-0.5V33c0-0.3-0.2-0.5-0.5-0.5l0,0
	c-0.3,0-0.5,0.2-0.5,0.5V121.6z"/>
<line class="st2" x1="216.2" y1="33" x2="216.2" y2="121.6"/>
<line class="st2" x1="217.2" y1="121.6" x2="217.2" y2="33"/>
<path class="st2" d="M216.3,61.5c-0.2,0.2-0.2,0.5,0,0.7l0,0c0.2,0.2,0.5,0.2,0.7,0c0,0,0,0,0,0l9.6-10.9c0.2-0.2,0.2-0.5,0-0.7
	c0,0,0,0,0,0l0,0c-0.2-0.2-0.5-0.2-0.7,0c0,0,0,0,0,0L216.3,61.5z"/>
<path class="st2" d="M217.1,61.5c0.2,0.2,0.2,0.6,0,0.7l0,0c-0.2,0.2-0.5,0.2-0.7,0c0,0,0,0,0,0l-9.6-10.8c-0.2-0.2-0.2-0.5,0-0.7
	c0,0,0,0,0,0l0,0c0.2-0.2,0.5-0.2,0.7,0c0,0,0,0,0,0L217.1,61.5z"/>
<path class="st2" d="M216.3,70.8c-0.2,0.2-0.2,0.5,0,0.7c0,0,0,0,0,0l0,0c0.2,0.2,0.5,0.2,0.7,0l9.6-10.9c0.2-0.2,0.2-0.5,0-0.7
	c0,0,0,0,0,0l0,0c-0.2-0.2-0.5-0.2-0.7,0c0,0,0,0,0,0L216.3,70.8z"/>
<path class="st2" d="M217.1,70.8c0.2,0.2,0.2,0.6,0,0.7l0,0c-0.2,0.2-0.5,0.2-0.7,0l-9.6-10.9c-0.2-0.2-0.2-0.5,0-0.7c0,0,0,0,0,0
	l0,0c0.2-0.2,0.5-0.2,0.7,0c0,0,0,0,0,0L217.1,70.8z"/>
<path class="st2" d="M216.3,78.9c-0.2,0.2-0.2,0.5,0,0.7c0,0,0,0,0,0l0,0c0.2,0.2,0.5,0.2,0.7,0l9.6-10.9c0.2-0.2,0.2-0.5,0-0.7l0,0
	c-0.2-0.2-0.5-0.2-0.7,0c0,0,0,0,0,0L216.3,78.9z"/>
<path class="st2" d="M217.1,78.9c0.2,0.2,0.2,0.5,0,0.7c0,0,0,0,0,0l0,0c-0.2,0.2-0.5,0.2-0.7,0c0,0,0,0,0,0l-9.6-10.9
	c-0.2-0.2-0.2-0.6,0-0.7l0,0c0.2-0.2,0.5-0.2,0.7,0L217.1,78.9z"/>
<path class="st2" d="M216.3,88.1c-0.2,0.2-0.2,0.5,0,0.7c0,0,0,0,0,0l0,0c0.2,0.2,0.5,0.2,0.7,0l9.6-10.9c0.2-0.2,0.2-0.5,0-0.7l0,0
	c-0.2-0.2-0.5-0.2-0.7,0c0,0,0,0,0,0L216.3,88.1z"/>
<path class="st2" d="M217.1,88.1c0.2,0.2,0.2,0.5,0,0.7c0,0,0,0,0,0l0,0c-0.2,0.2-0.5,0.2-0.7,0c0,0,0,0,0,0L206.7,78
	c-0.2-0.2-0.2-0.6,0-0.7l0,0c0.2-0.2,0.5-0.2,0.7,0c0,0,0,0,0,0L217.1,88.1z"/>
<circle class="st0" cx="216.7" cy="17" r="15.8"/>
<circle class="st0" cx="216.7" cy="17" r="8.8"/>
<path class="st0" d="M260,87.7c0,0-1.5-8.3,7.9-8.7C267.9,79,268.9,87.3,260,87.7z"/>
<path class="st0" d="M260,87.7c0,0-8,1.3-8.7-8.3C251.3,79.4,259.3,78.6,260,87.7z"/>
<path class="st0" d="M259.8,87.7c0,0,1.4,8.2-7.4,8.7C252.4,96.4,251.5,88.2,259.8,87.7z"/>
<path class="st0" d="M259.9,87.9c0,0,8.4-1.3,9.1,8.3C269,96.2,260.6,97,259.9,87.9z"/>
<circle class="st0" cx="308" cy="67.5" r="3.3"/>
<circle class="st0" cx="308" cy="88.6" r="3.3"/>
<circle class="st0" cx="329.1" cy="81.3" r="3.3"/>
<circle class="st0" cx="329.1" cy="102.5" r="3.3"/>
<path class="st0" d="M319.7,49.8c0,0-2-11.2,10.7-11.8C330.3,38.1,331.7,49.3,319.7,49.8z"/>
<path class="st0" d="M318.8,51.2c0,0-13.9,2.2-15.1-14.6C303.7,36.6,317.6,35.3,318.8,51.2z"/>
<circle class="st0" cx="379.3" cy="31.9" r="13.5"/>
<path class="st1" d="M392.2,64.3c0.5,0,1-0.4,1-1l0,0c0-0.6-0.4-1-1-1h-26.6c-0.6,0-1,0.4-1,1l0,0c0,0.5,0.5,1,1,1L392.2,64.3z"/>
<path class="st1" d="M389.2,77c0.4,0,0.8-0.4,0.8-0.8l0,0c0-0.4-0.4-0.8-0.8-0.8h-20.6c-0.4,0-0.8,0.4-0.8,0.8l0,0
	c0,0.4,0.4,0.8,0.8,0.8H389.2z"/>
<path class="st1" d="M386.1,89.8c0.3,0,0.5-0.2,0.5-0.5l0,0c0-0.3-0.2-0.5-0.5-0.6h-14.5c-0.3,0-0.5,0.2-0.5,0.5c0,0,0,0,0,0l0,0
	c0,0.3,0.2,0.5,0.5,0.5H386.1z"/>
<circle class="st0" cx="21.5" cy="78" r="19.4"/>
<circle class="st0" cx="21.5" cy="78" r="13"/>
<circle class="st0" cx="21.5" cy="78" r="6"/>
</svg>
